<svg xmlns="http://www.w3.org/2000/svg" xmlns:xlink="http://www.w3.org/1999/xlink" width="135" height="108" viewBox="0 0 135 108" fill="none"><defs><filter id="filter_2" x="-4" y="-4" width="108" height="108" filterUnits="userSpaceOnUse" color-interpolation-filters="sRGB"><feFlood flood-opacity="0" result="BackgroundImageFix"/>
          <feColorMatrix in="SourceAlpha" type="matrix" values="0 0 0 0 0 0 0 0 0 0 0 0 0 0 0 0 0 0 127 0"/>
          <feOffset dx="0" dy="2"/>
          <feGaussianBlur stdDeviation="2"/>
          <feColorMatrix type="matrix" values="0 0 0 0 0 0 0 0 0 0 0 0 0 0 0 0 0 0 0.25 0"/>
          <feBlend mode="normal" in2="BackgroundImageFix" result="effect1_Shadow"/>
          <feBlend mode="normal" in="SourceGraphic" in2="effect1_Shadow" result="shape"/></filter><linearGradient id="linear_0" x1="50%" y1="50%" x2="51%" y2="100%" gradientUnits="objectBoundingBox"><stop offset="0" stop-color="#AC33C1" stop-opacity="1" /><stop offset="1" stop-color="#FF8D1A" stop-opacity="1" /></linearGradient><filter id="filter_6" x="-4" y="-4" width="108" height="108" filterUnits="userSpaceOnUse" color-interpolation-filters="sRGB"><feFlood flood-opacity="0" result="BackgroundImageFix"/>
          <feColorMatrix in="SourceAlpha" type="matrix" values="0 0 0 0 0 0 0 0 0 0 0 0 0 0 0 0 0 0 127 0"/>
          <feOffset dx="0" dy="2"/>
          <feGaussianBlur stdDeviation="2"/>
          <feColorMatrix type="matrix" values="0 0 0 0 0 0 0 0 0 0 0 0 0 0 0 0 0 0 0.25 0"/>
          <feBlend mode="normal" in2="BackgroundImageFix" result="effect1_Shadow"/>
          <feBlend mode="normal" in="SourceGraphic" in2="effect1_Shadow" result="shape"/></filter><linearGradient id="linear_1" x1="50%" y1="50%" x2="51%" y2="100%" gradientUnits="objectBoundingBox"><stop offset="0" stop-color="#AC33C1" stop-opacity="1" /><stop offset="1" stop-color="#FF8D1A" stop-opacity="1" /></linearGradient></defs><g opacity="1" transform="translate(3.99749755859375 1.9976272583007812)  rotate(0 63.5 50)"><g opacity="1" transform="translate(0 0)  rotate(0 50 50)"><g id="undefined" filter="url(#filter_2)"></g><path id="Shape" fill-rule="evenodd" fill="url(#linear_0)" transform="translate(0 0)  rotate(0 50 50)" opacity="1" d="M12.45,27.81L31.26,13.84C32.05,13.25 33.25,13.25 34.05,13.84L81.3,48.94C82.09,49.53 82.09,50.42 81.3,51.01L34.05,86.11C33.25,86.69 32.05,86.69 31.26,86.11L12.45,72.14C9.6,70.02 4.99,70.02 2.14,72.14C-0.71,74.25 -0.71,77.68 2.14,79.8L26.95,98.23C30.13,100.59 35.26,100.59 38.45,98.23L97.61,54.28C100.8,51.91 100.8,48.1 97.61,45.73L38.45,1.78C35.28,-0.57 30.14,-0.59 26.94,1.72L2.14,20.15C-0.71,22.26 -0.71,25.69 2.14,27.81C4.99,29.93 9.6,29.93 12.45,27.81Z " /></g><g opacity="1" transform="translate(27 0)  rotate(180 50 50)"><g id="undefined" filter="url(#filter_6)"></g><path id="Shape" fill-rule="evenodd" fill="url(#linear_1)" transform="translate(0 0)  rotate(0 50 50)" opacity="1" d="M81.3,51.01L34.05,86.11C33.25,86.69 32.05,86.69 31.26,86.11L12.45,72.14C9.6,70.02 4.99,70.02 2.14,72.14C-0.71,74.25 -0.71,77.68 2.14,79.8L26.95,98.23C30.13,100.59 35.26,100.59 38.45,98.23L97.61,54.28C100.8,51.91 100.8,48.1 97.61,45.73L38.45,1.78C35.28,-0.57 30.14,-0.59 26.94,1.72L2.14,20.15C-0.71,22.26 -0.71,25.69 2.14,27.81C4.99,29.93 9.6,29.93 12.45,27.81L31.26,13.84C32.05,13.25 33.25,13.25 34.05,13.84L81.3,48.94C82.09,49.53 82.09,50.42 81.3,51.01Z " /></g></g></svg>